<svg xmlns="http://www.w3.org/2000/svg" xmlns:xlink="http://www.w3.org/1999/xlink" id="Layer_1" x="0" y="0" version="1.1" viewBox="0 0 200 200" xml:space="preserve" style="enable-background:new 0 0 200 200"><style type="text/css">.st0{fill:url(#SVGID_1_)}.st1{fill:url(#SVGID_2_)}.st2{fill:url(#SVGID_3_)}.st3{fill:url(#SVGID_4_)}.st4{fill:url(#SVGID_5_)}.st5{fill:url(#SVGID_6_)}</style><g><linearGradient id="SVGID_1_" x1="72.428" x2="99.994" y1="880.55" y2="880.55" gradientTransform="matrix(1 0 0 1 0 -852)" gradientUnits="userSpaceOnUse"><stop offset="0" style="stop-color:#eea831"/><stop offset="1" style="stop-color:#ffc929"/></linearGradient><polygon points="100 56.1 100 1 72.4 41.8" class="st0"/><linearGradient id="SVGID_2_" x1="100" x2="163.3" y1="942.7" y2="942.7" gradientTransform="matrix(1 0 0 1 0 -852)" gradientUnits="userSpaceOnUse"><stop offset="0" style="stop-color:#b32629"/><stop offset=".583" style="stop-color:#8c1e21"/><stop offset="1" style="stop-color:#7a1a1d"/></linearGradient><polygon points="100 72.4 100 127.6 100 127.6 163.3 94.6 135.7 53.8" class="st1"/><linearGradient id="SVGID_3_" x1="100" x2="127.572" y1="880.55" y2="880.55" gradientTransform="matrix(1 0 0 1 0 -852)" gradientUnits="userSpaceOnUse"><stop offset="0" style="stop-color:#e8a333"/><stop offset=".612" style="stop-color:#c68931"/><stop offset="1" style="stop-color:#ab762f"/></linearGradient><polygon points="100 56.1 127.6 41.8 100 1" class="st2"/><linearGradient id="SVGID_4_" x1="100" x2="199" y1="1004.85" y2="1004.85" gradientTransform="matrix(1 0 0 1 0 -852)" gradientUnits="userSpaceOnUse"><stop offset="0" style="stop-color:#b32629"/><stop offset=".583" style="stop-color:#8c1e21"/><stop offset="1" style="stop-color:#7a1a1d"/></linearGradient><polygon points="171.4 106.7 100 143.9 100 143.9 100 199 199 147.5" class="st3"/><linearGradient id="SVGID_5_" x1="1" x2="100" y1="1004.85" y2="1004.85" gradientTransform="matrix(1 0 0 1 0 -852)" gradientUnits="userSpaceOnUse"><stop offset="0" style="stop-color:#ae2524"/><stop offset=".563" style="stop-color:#d01d19"/><stop offset="1" style="stop-color:#ed1913"/></linearGradient><polygon points="1 147.5 100 199 100 143.9 28.6 106.7" class="st4"/><linearGradient id="SVGID_6_" x1="36.7" x2="100" y1="942.7" y2="942.7" gradientTransform="matrix(1 0 0 1 0 -852)" gradientUnits="userSpaceOnUse"><stop offset="0" style="stop-color:#ae2524"/><stop offset=".563" style="stop-color:#d01d19"/><stop offset="1" style="stop-color:#ed1913"/></linearGradient><polygon points="64.3 53.8 36.7 94.6 100 127.6 100 72.4" class="st5"/></g></svg>